PathFileType	4	(X/Y/Z)	Walk1_0-155.trc
DataRate	CameraRate	NumFrames	NumMarkers	Units	OrigDataRate	OrigDataStartFrame	OrigNumFrames
30	30	6	22	m	30	77	155
Frame#	Time	Hip			RHip			RKnee			RAnkle			RBigToe			RSmallToe			RHeel			LHip			LKnee			LAnkle			LBigToe			LSmallToe			LHeel			Neck			Head			Nose			RShoulder			RElbow			RWrist			LShoulder			LElbow			LWrist		
		X1	Y1	Z1	X2	Y2	Z2	X3	Y3	Z3	X4	Y4	Z4	X5	Y5	Z5	X6	Y6	Z6	X7	Y7	Z7	X8	Y8	Z8	X9	Y9	Z9	X10	Y10	Z10	X11	Y11	Z11	X12	Y12	Z12	X13	Y13	Z13	X14	Y14	Z14	X15	Y15	Z15	X16	Y16	Z16	X17	Y17	Z17	X18	Y18	Z18	X19	Y19	Z19	X20	Y20	Z20	X21	Y21	Z21	X22	Y22	Z22
78	2.6	-0.6849852058570384	0.8888606932252306	0.3597624027918105	-0.6773466426983562	0.8673435270962594	0.4688327522360156	-0.6040697857626987	0.5104644805240403	0.42731657317176813	-0.648271139657899	0.10080621435342606	0.37443059291314057	-0.43858724390650244	0.033813085715501935	0.3742588558959145	-0.4803833361540455	0.022624803410421564	0.4298667394997714	-0.6945066626093254	0.02521537352896294	0.36918014181915126	-0.690115917368526	0.8731773499186851	0.2482160225868489	-0.6023373806058214	0.5150363848782709	0.2202357671207717	-0.9124729814737541	0.26214870201912355	0.26931670866705437	-0.8407590010751926	0.01776436974270453	0.28221181609048407	-0.8777908707516208	0.04695614419898406	0.23847257114913634	-1.0004828382638238	0.23237370745344846	0.2817114036113572	-0.7254571633277024	1.563589648915766	0.35937393334209866	-0.70179811216566	1.8182676146548642	0.36293387401255345	-0.5585824553949817	1.6749562495654964	0.364309768759115	-0.7697826687405762	1.4484049726235229	0.5295956477039303	-0.6930457851564366	1.1272594321983587	0.5993992003706731	-0.6013173787933991	0.8853307263717238	0.6352918676179804	-0.7394158880978801	1.4515978250745833	0.17745304305514178	-0.7285994472073543	1.1449153215511856	0.11377240474840018	-0.6867098275112975	0.8875216798692364	0.0929691987941208
79	2.6333333333333333	-0.6488440890126221	0.8952592608738438	0.36068138608460504	-0.6439304484811434	0.8765519577855095	0.4701383355908592	-0.5957966995021213	0.512046133023184	0.42666437709985267	-0.6444315636880159	0.10362622640773748	0.37533639316912504	-0.4426938725104437	0.030111233479109163	0.3765804690688438	-0.4874437140079733	0.01787430358575107	0.4321661873705092	-0.6922110866256345	0.027643404073419434	0.3707767751020542	-0.6518171260290735	0.8836561439621009	0.24724298873751813	-0.5242874411150354	0.530647144323136	0.22558396469987396	-0.8132244330123203	0.2569146110698741	0.2664575789729192	-0.7095804547183184	0.020331325605840674	0.28316856601057055	-0.7489586167027943	0.047105006777736665	0.23690912794024585	-0.8941936062850097	0.22144621660773012	0.28024344662904527	-0.6882426157397342	1.5738375282804924	0.35721122704517755	-0.6578709784938807	1.823954540135507	0.3638318115900523	-0.510272686218933	1.6766534536380404	0.35775654511309296	-0.7293652490218311	1.4566952208587858	0.5287457560293696	-0.632018381378001	1.1377771074313505	0.6049661411957614	-0.524831668453474	0.9005030230369571	0.6358091785518785	-0.6966423808188063	1.4581419430818334	0.18265879065467058	-0.700952190191459	1.1514755983011304	0.11867538423755492	-0.67319451294299	0.8916637844791226	0.09527460781184213
80	2.6666666666666665	-0.613370552818112	0.9007382262387372	0.3612216166671612	-0.6118799767635449	0.8846747681393796	0.47167561912610856	-0.5884981470109044	0.5137229566843726	0.42526607986933845	-0.6397643489194426	0.10646244162006073	0.37607974082800316	-0.4475332985655508	0.026092310858903265	0.3785663066293429	-0.49446617255905406	0.014009241584983121	0.434589830133048	-0.6899093869623755	0.02983138671785983	0.36997615554964125	-0.6139420843937418	0.8924901714464512	0.2464944014703919	-0.45116109716981817	0.5455203527525601	0.23422019927792984	-0.7084263017574067	0.24325968577593246	0.26425734300881465	-0.5674184468366844	0.026756577674039255	0.2824505028365889	-0.6079446606415064	0.048793193891083726	0.23513195254750582	-0.7807552590170685	0.20201536902747774	0.27778417679454853	-0.6497965077802965	1.5817620574368354	0.3553697290157547	-0.6135554034083008	1.8287626424544008	0.36326380563853683	-0.46205486509672306	1.676454649807184	0.34950464977334506	-0.6879681848608209	1.463031939376597	0.5283035596839232	-0.574205106344401	1.1491761489559422	0.6080995567024818	-0.45054030212525703	0.9170407958065505	0.6345273047372859	-0.6562370246395559	1.4631004657063964	0.1845877811411125	-0.6743351624516055	1.1563606114481446	0.12278455096719523	-0.6571733119667368	0.8958524636931814	0.09600918801767765
81	2.7	-0.5776158823122464	0.9046570154067803	0.36147332885531347	-0.5802110417492726	0.8907021779681987	0.4733838948033956	-0.5799554413161714	0.5145478708733234	0.4236486265505343	-0.6357662692689123	0.10846266995837807	0.376330493035482	-0.45251930045427247	0.022226631604643457	0.38036514764657814	-0.5005911869068705	0.011798063139148326	0.4373102347918476	-0.6888479421261748	0.031074236461065555	0.3667277398904883	-0.5758639028065299	0.8982088994912046	0.2462314569099501	-0.3854024424047266	0.5566020898879055	0.2437995767678092	-0.5973851500392121	0.22450351589043008	0.26256415413321865	-0.420646185721015	0.03964089018954905	0.2791422004312567	-0.4610368303617409	0.054879345831649766	0.2319182297323168	-0.660244045651027	0.17693067101516524	0.274825300630383	-0.6096541265696084	1.5859136110134926	0.3545333018647207	-0.5694140428786939	1.832093761697747	0.3617900249205778	-0.41568465126541454	1.6748682342200751	0.34235315177150594	-0.6447042673285839	1.4661500957617626	0.5288301131224776	-0.5199508309844391	1.1592412777170555	0.6093924333593906	-0.37892165765019625	0.9334739179597157	0.6315111404937771	-0.6175838973525608	1.4655170299538611	0.18362300158795675	-0.6480189437491386	1.1587633659373369	0.1255603787883356	-0.6376325303901397	0.8989095002254824	0.09506970390162595
82	2.7333333333333334	-0.5412664067702062	0.9066781995655122	0.3615689339625356	-0.5484105316480935	0.8940532235698424	0.47514836299650004	-0.568377277980065	0.5138155868077231	0.4222008937452169	-0.6336062394269425	0.10903192444969244	0.37568561299405817	-0.45584455373545824	0.019108242382657705	0.38209074607469934	-0.5043170020238065	0.011461482788118664	0.4402398694601562	-0.6895699031587829	0.03147564944735073	0.3619278002536471	-0.5376356983036109	0.9000704481529755	0.24673474689658817	-0.32938452341868363	0.5611783164280074	0.2518979450844595	-0.47995821632824937	0.204137563692816	0.26181927012328016	-0.27531794754152944	0.05912880699170631	0.27417290094534175	-0.31460381451718067	0.06612863418285968	0.22749905684095864	-0.5333466298208026	0.1490661592220803	0.272436907657264	-0.5679521523818802	1.5857768323007102	0.35473471814661234	-0.5261698688689648	1.83347537285522	0.3601236789065046	-0.37204772483768145	1.6723788651386349	0.33807204158220294	-0.5990411115435283	1.4654438187486432	0.5305533974445775	-0.46905937335753906	1.166227267555067	0.6095768956486267	-0.31037562150855313	0.9486265347419346	0.6269205511775202	-0.5800075611867247	1.464776996176997	0.18024601842271498	-0.6210344072836792	1.1582054770195296	0.12672529048845485	-0.6138551517746291	0.8998713401318985	0.09271083014569126
83	2.7666666666666666	-0.5046286921048311	0.9066736929213016	0.361851470869482	-0.5163465332329228	0.894314556794995	0.47699837874094675	-0.5530908550874544	0.5113902241029005	0.42115947862694697	-0.633498051909023	0.1083235159046191	0.3741857331618259	-0.4553820421818227	0.017179938859186887	0.38324734195383203	-0.5041363190099317	0.012352277885277818	0.442553795305232	-0.6917323430802745	0.03189305496467881	0.35700840644064463	-0.49959474842381	0.8979894639079344	0.2483055826465534	-0.2832902046317614	0.5583391172512018	0.25758413516510253	-0.3588383074234641	0.18556809660208184	0.26263383496170295	-0.13727922925337993	0.08275367302942747	0.2697189601245904	-0.17485668240184618	0.08083598949089589	0.22346798562058118	-0.40345685967019707	0.12194594590042152	0.27152969688578843	-0.5252046514906307	1.5818333687068178	0.3556129229507818	-0.4844533420432177	1.8323635956894613	0.3586428176719093	-0.33090755590825505	1.6691923209609414	0.3367795652027548	-0.5514758118517111	1.4612343031157309	0.5332163413169758	-0.42096455716980824	1.1694036609206542	0.6090729625885766	-0.2452156019095887	0.9615985122407787	0.6210228323445599	-0.5426961531409278	1.4608305103112615	0.17514338256815593	-0.5924016723098117	1.1546052492193857	0.1264557673417472	-0.5858051838250273	0.8983547341648133	0.08945028511404084
